<?xml version="1.0" standalone="no"?>
<!DOCTYPE svg PUBLIC "-//W3C//DTD SVG 20010904//EN"
 "http://www.w3.org/TR/2001/REC-SVG-20010904/DTD/svg10.dtd">
<svg version="1.0" xmlns="http://www.w3.org/2000/svg"
 width="1000.000000pt" height="1000.000000pt" viewBox="0 0 1000.000000 1000.000000"
 preserveAspectRatio="xMidYMid meet">
<metadata>
Created by potrace 1.11, written by Peter Selinger 2001-2013
</metadata>
<g transform="translate(0.000000,1000.000000) scale(0.100000,-0.100000)"
fill="#000000" stroke="none">
<path d="M6325 9204 c-11 -2 -45 -9 -75 -15 -115 -23 -260 -107 -344 -197
-124 -134 -182 -269 -193 -444 -19 -306 159 -582 447 -696 81 -32 141 -43 265
-47 201 -8 302 -25 405 -67 145 -61 215 -147 260 -324 25 -98 30 -133 35 -280
2 -67 11 -152 20 -190 20 -89 77 -206 129 -269 22 -27 48 -58 56 -68 54 -65
210 -153 325 -183 104 -28 276 -26 375 5 84 26 190 78 235 116 133 114 192
197 242 344 34 98 42 271 17 371 -36 146 -132 298 -246 390 -128 103 -267 148
-483 155 -77 3 -153 7 -170 10 -237 44 -349 110 -418 250 -54 109 -74 211 -82
420 -3 72 -7 141 -11 155 -3 14 -8 36 -11 50 -17 82 -130 270 -195 325 -154
131 -280 184 -458 190 -58 2 -114 2 -125 -1z"/>
<path d="M2085 7804 c-5 -1 -44 -10 -85 -19 -250 -57 -446 -248 -516 -502 -20
-75 -23 -105 -20 -203 6 -193 60 -320 196 -463 139 -147 313 -217 527 -213
187 4 343 70 484 206 199 191 259 517 143 778 -91 205 -309 377 -519 407 -50
8 -191 14 -210 9z"/>
<path d="M4910 7797 c-158 -20 -295 -90 -415 -211 -103 -104 -157 -206 -191
-357 -3 -13 -7 -71 -9 -129 -15 -372 -85 -536 -269 -624 -105 -51 -221 -71
-452 -81 -115 -4 -135 -8 -227 -40 -245 -85 -421 -299 -462 -564 -9 -52 -9
-172 -1 -197 3 -11 8 -34 11 -52 12 -73 88 -236 128 -276 7 -7 26 -28 43 -48
90 -103 243 -187 389 -215 49 -10 205 -10 260 -1 187 32 372 159 476 328 70
114 96 214 104 399 6 155 11 198 36 289 51 191 149 289 339 341 107 29 205 38
372 35 249 -4 393 -45 500 -143 114 -104 163 -267 169 -556 3 -183 62 -339
176 -464 172 -191 424 -275 669 -225 282 58 497 271 553 550 16 80 20 185 8
244 -3 14 -8 43 -12 65 -9 51 -85 209 -122 254 -44 54 -136 141 -155 147 -10
3 -18 9 -18 13 0 12 -149 79 -215 96 -33 9 -100 18 -150 20 -211 11 -264 17
-337 35 -103 25 -181 65 -239 120 -70 67 -128 196 -144 320 -12 96 -14 118
-16 213 -4 191 -56 339 -164 466 -161 188 -394 279 -635 248z"/>
<path d="M632 6389 c-332 -54 -591 -354 -590 -685 1 -250 114 -461 319 -597
205 -137 485 -151 711 -37 185 94 325 276 369 480 13 60 16 194 6 257 -27 175
-146 362 -295 465 -64 44 -178 94 -246 108 -76 15 -205 20 -274 9z"/>
<path d="M9110 6383 c-212 -40 -406 -193 -500 -396 -44 -94 -60 -169 -65 -307
-9 -219 -24 -298 -81 -425 -49 -109 -148 -185 -294 -224 -100 -27 -125 -30
-260 -36 -213 -10 -274 -22 -388 -77 -173 -84 -297 -230 -367 -433 -25 -74
-31 -251 -11 -345 67 -317 362 -554 686 -553 52 1 107 4 123 7 15 3 37 8 50
11 216 48 411 220 494 435 12 30 24 69 28 85 3 17 8 41 10 55 3 14 7 79 10
145 4 110 7 139 21 230 17 106 82 235 148 297 78 72 242 124 416 133 194 10
242 15 302 30 437 114 654 600 448 1005 -74 146 -234 282 -395 339 -109 38
-252 47 -375 24z"/>
<path d="M1995 4971 c-244 -66 -419 -228 -502 -467 -24 -71 -27 -93 -28 -214
0 -116 3 -145 23 -205 140 -420 588 -614 990 -429 90 42 188 124 256 214 36
47 54 80 96 170 22 46 42 165 42 244 1 123 -16 192 -73 313 -41 85 -61 114
-127 180 -143 143 -283 204 -487 209 -94 3 -135 -1 -190 -15z"/>
<path d="M4860 4979 c-179 -46 -302 -119 -400 -236 -123 -147 -163 -269 -175
-533 -6 -150 -7 -155 -35 -256 -71 -262 -233 -352 -660 -369 -63 -3 -122 -7
-130 -8 -245 -56 -422 -192 -518 -398 -181 -388 20 -838 433 -969 90 -29 261
-36 355 -15 276 62 488 272 544 539 7 35 14 102 15 149 5 210 29 335 85 446
87 171 255 243 591 256 66 2 131 7 145 9 89 18 133 32 190 59 204 95 352 286
394 507 15 77 13 230 -3 273 -6 15 -9 27 -6 27 2 0 -3 19 -11 43 -83 234 -261
401 -501 466 -77 21 -248 26 -313 10z"/>
<path d="M2065 2169 c-169 -23 -344 -123 -450 -256 -310 -389 -138 -956 337
-1108 375 -121 784 94 893 470 73 254 3 520 -187 701 -102 98 -221 160 -362
190 -39 8 -181 10 -231 3z"/>
</g>
</svg>
