<?xml version="1.0" encoding="utf-8"?>
<!-- Generator: Adobe Illustrator 22.0.1, SVG Export Plug-In . SVG Version: 6.00 Build 0)  -->
<svg version="1.1" id="Layer_1" xmlns="http://www.w3.org/2000/svg" xmlns:xlink="http://www.w3.org/1999/xlink" x="0px" y="0px"
	 viewBox="0 0 2305.7 308.6" style="enable-background:new 0 0 2305.7 308.6;" xml:space="preserve">
<style type="text/css">
	.st0{fill:#2693CF;}
	.st1{fill:#80C241;}
	.st2{fill:#2DAFE1;}
	.st3{fill:#358A9F;}
	.st4{fill:#4EB64D;}
	.st5{fill:#4AB49F;}
	.st6{fill:#72CEF2;}
	.st7{fill:#414141;}
</style>
<g>
	<g>
		<path class="st0" d="M205.7,180c0,14.2-11.5,25.7-25.7,25.7l0,0c-3.5,0-14.5,0-20.1,5.6s-5.6,16.6-5.6,20.1
			c0,14.2-11.5,25.7-25.7,25.7l0,0c-14.2,0-25.7-11.5-25.7-25.7s11.5-25.7,25.7-25.7l0,0c3.5,0,14.5,0,20.1-5.6s5.6-16.6,5.6-20.1
			c0-14.2,11.5-25.7,25.7-25.7l0,0C194.2,154.3,205.7,165.8,205.7,180z"/>
		<circle class="st1" cx="77.2" cy="180" r="25.7"/>
		<path class="st2" d="M360.1,128.6c0,14.2-11.5,25.7-25.7,25.7l0,0c-3.5,0-14.5,0-20.1,5.6s-5.6,16.6-5.6,20.1
			c0,14.2-11.5,25.7-25.7,25.7l0,0c-14.2,0-25.7-11.5-25.7-25.7s11.5-25.7,25.7-25.7l0,0c3.5,0,14.5,0,20.1-5.6s5.6-16.6,5.6-20.1
			c0-14.2,11.5-25.7,25.7-25.7l0,0C348.6,102.9,360.1,114.4,360.1,128.6z"/>
		<path class="st3" d="M257.2,128.6c0,14.2-11.5,25.7-25.7,25.7l0,0c-14.2,0-25.7-11.5-25.7-25.7c0-1.8,0-5.4-0.7-9.3
			s-2.1-8-4.9-10.8c-5.6-5.6-16.6-5.6-20.1-5.6l0,0c-3.5,0-14.5,0-20.1,5.6s-5.6,16.6-5.6,20.1c0,14.2-11.5,25.7-25.7,25.7l0,0
			c-14.2,0-25.7-11.5-25.7-25.7s11.5-25.7,25.7-25.7l0,0c3.5,0,14.5,0,20.1-5.6s5.6-16.6,5.6-20.1c0-14.2,11.5-25.7,25.7-25.7l0,0
			c14.2,0,25.7,11.5,25.7,25.7c0,1.8,0,5.4,0.7,9.3s2.1,8,4.9,10.8c5.6,5.6,16.6,5.6,20.1,5.6l0,0
			C245.7,102.9,257.2,114.4,257.2,128.6z"/>
		<circle class="st4" cx="25.7" cy="128.6" r="25.7"/>
		<circle class="st5" cx="77.2" cy="77.1" r="25.7"/>
		<path class="st6" d="M308.6,77.1c0,14.2-11.5,25.7-25.7,25.7l0,0c-14.2,0-25.7-11.5-25.7-25.7c0-1.8,0-5.4-0.7-9.2
			c-0.7-3.9-2.1-8-4.9-10.8c-5.6-5.6-16.6-5.6-20.1-5.6l0,0c-14.2,0-25.7-11.5-25.7-25.7s11.5-25.7,25.7-25.7s25.7,11.5,25.7,25.7
			c0,1.8,0,5.4,0.7,9.3s2.1,8,4.9,10.8c5.6,5.6,16.6,5.6,20.1,5.6l0,0C297.1,51.4,308.6,62.9,308.6,77.1z"/>
		
			<ellipse transform="matrix(3.327795e-02 -0.9994 0.9994 3.327795e-02 -208.1124 350.6429)" class="st0" cx="77.2" cy="282.9" rx="25.7" ry="25.7"/>
	</g>
	<g>
		<path class="st7" d="M607,190.4c0,19.2-8,49-61,49h-66V72.6h60c28.5,0,57.8,10.8,57.8,47c0,16.5-9.2,26.8-19.8,32.3
			C591,156.7,607,167.4,607,190.4z M510,140.7h31.8c4,0,26,1.5,26-20c0-18.7-16-22-28.3-22H510V140.7z M577,188.9
			c0-19.8-19.5-21.8-33.5-21.8H510v46h34.5C561.5,213.2,577,207.9,577,188.9z"/>
		<path class="st7" d="M698.6,112.7v26c-16.8,0.3-28,3-32.3,4.3v96.5h-30V125.9C636.3,125.9,662.8,113.4,698.6,112.7z"/>
		<path class="st7" d="M824.1,165.7v33.8c0,20.3-13.8,42-52.5,42c-39.5,0-53.5-22-53.5-42.8c0-9.2,3.7-39.3,53.8-39.3
			c7.8,0,15.3,0.8,22,1.7c0-13.5-7-23.5-26.5-23.5c-15,0-27.3,2.5-36.5,6.3v-24.3c10.5-4.3,23.2-7,38.3-7
			C804.6,112.7,824.1,131.4,824.1,165.7z M794.1,180.2c-5.2-0.8-11.2-1.5-18-1.5c-20.3,0-28.3,6-28.3,16.3c0,13,7.8,20,23.5,20
			c16.7,0,22.7-7.5,22.7-19L794.1,180.2L794.1,180.2z"/>
		<path class="st7" d="M858.9,97.7V70.2h30.8v27.5H858.9z M859.4,239.4V114.7h30v124.8h-30V239.4z"/>
		<path class="st7" d="M1042.2,164.4v75h-29.8v-77.5c0-11-2.3-22.8-29.5-22.8c-8.5,0-16.5,1-23.2,2.3v98h-30v-113
			c1-0.5,25.5-13.8,57.3-13.8C1021.7,112.7,1042.2,131.9,1042.2,164.4z"/>
		<path class="st7" d="M1213.5,190.4c0,19.2-8,49-61,49h-66V72.6h60c28.5,0,57.8,10.8,57.8,47c0,16.5-9.3,26.8-19.8,32.3
			C1197.5,156.7,1213.5,167.4,1213.5,190.4z M1116.5,140.7h31.8c4,0,26,1.5,26-20c0-18.7-16-22-28.3-22h-29.5V140.7z M1183.5,188.9
			c0-19.8-19.5-21.8-33.5-21.8h-33.5v46h34.5C1168,213.2,1183.5,207.9,1183.5,188.9z"/>
		<path class="st7" d="M1248.1,239.4V67.1h30v172.3H1248.1z"/>
		<path class="st7" d="M1429.4,177.2c0,41.5-21,64.3-59,64.3s-59-22.8-59-64.3s21-64.3,59-64.3
			C1408.3,112.9,1429.4,135.7,1429.4,177.2z M1399.3,177.2c0-33-11.3-39.5-29-39.5c-17.8,0-29,6.5-29,39.5s11.2,39.5,29,39.5
			C1388.1,216.7,1399.3,210.2,1399.3,177.2z"/>
		<path class="st7" d="M1517.4,215.7c11.5,0,21.8-2.5,31-6.3v25c-10.7,4.2-22.7,7-36,7c-38,0-59-22.8-59-64.3s21-64.5,59-64.5
			c13.3,0,25.3,2.8,36,7v25c-9.2-3.7-19.5-6-31-6c-21,0-34,6.3-34,38.5C1483.4,209.2,1496.4,215.7,1517.4,215.7z"/>
		<path class="st7" d="M1655.7,239.4l-41.3-49.3l-8.3,8.5v40.8h-30V67.9h30v92.5l42-45.8h39.8l-54.3,55.5l60,69.3H1655.7z"/>
		<path class="st7" d="M1800,204.9c0,20.8-18,36.5-46.5,36.5c-15.8,0-29-4.3-39.5-10.3v-26.8c9,6,21,11,35.3,11
			c19.3,0,20.8-5.2,20.8-12c0-20.5-59.5-8.5-59.5-51.8c0-26.3,21.5-39,46.3-39c13,0,24.5,3.5,34,9v22.7c-7.5-3.5-17-6-28.8-6
			c-12.5,0-21.5,2.5-21.5,10.5C1740.5,168.2,1800,153.9,1800,204.9z"/>
	</g>
</g>
<g>
	<path class="st7" d="M2036.5,124.7c0,33.1-20.4,51.3-57.6,51.3h-41.1v63.5h-17.9V73.4h59.1C2016.1,73.4,2036.5,91.6,2036.5,124.7z
		 M2018.6,124.7c0-15.9-4.7-34.1-41.9-34.1h-38.9v68.3h38.9C2013.8,158.8,2018.6,140.7,2018.6,124.7z"/>
	<path class="st7" d="M2172.1,177.3c0,53.1-31.9,64.3-58.6,64.3s-58.3-11.2-58.3-64.3s31.6-64.3,58.3-64.3
		S2172.1,124.2,2172.1,177.3z M2154.1,177.3c0-33.4-12.2-47.8-40.6-47.8c-28.2,0-40.4,14.5-40.4,47.8s12.2,47.8,40.4,47.8
		C2141.9,225.1,2154.1,210.7,2154.1,177.3z"/>
	<path class="st7" d="M2304.6,197.2c0,27.7-21.9,44.4-59.1,44.4c-21.2,0-37.4-5.5-49.1-11.7v-19.4c9.7,6.5,25.2,13.2,47.8,13.2
		c19.2,0,42.4-4.5,42.4-26.4c0-48.6-91.7-24.2-91.7-79.7c0-22.4,14.9-46.3,57.3-46.3c16.9,0,30.9,4.7,41.6,10v18.4
		c-9.2-5.2-22.9-10.5-39.9-10.5c-26.4,0-41.1,10-41.1,28.4C2212.9,153.9,2304.6,133.7,2304.6,197.2z"/>
</g>
</svg>
