<?xml version="1.0" encoding="utf-8"?>
<!DOCTYPE svg PUBLIC "-//W3C//DTD SVG 1.1//EN" "http://www.w3.org/Graphics/SVG/1.1/DTD/svg11.dtd">
<svg xmlns="http://www.w3.org/2000/svg" xmlns:xlink="http://www.w3.org/1999/xlink" version="1.1" viewBox="0 0 512 512" enable-background="new 0 0 512 512" width="512px" height="512px">
  <g>
    <g>
      <g>
        <g>
          <path d="M431.1,500.9H80.9V11.1h350.1V500.9z M101.8,480h309.5V32H101.8V480z" fill="#FFFFFF"/>
        </g>
        <g>
          <path d="M383.1,184.1H128.9V66.3h254.3V184.1z M149.7,163.3h213.6V87.2H149.7V163.3z" fill="#FFFFFF"/>
        </g>
        <g>
          <g>
            <rect width="45.8" x="139.3" y="239.3" height="20.8" fill="#FFFFFF"/>
          </g>
          <g>
            <rect width="45.8" x="233.1" y="239.3" height="20.8" fill="#FFFFFF"/>
          </g>
          <g>
            <rect width="45.8" x="326.9" y="239.3" height="20.8" fill="#FFFFFF"/>
          </g>
          <g>
            <rect width="45.8" x="139.3" y="299.8" height="20.8" fill="#FFFFFF"/>
          </g>
          <g>
            <rect width="45.8" x="233.1" y="299.8" height="20.8" fill="#FFFFFF"/>
          </g>
          <g>
            <rect width="45.8" x="326.9" y="299.8" height="20.8" fill="#FFFFFF"/>
          </g>
          <g>
            <rect width="45.8" x="139.3" y="361.2" height="20.8" fill="#FFFFFF"/>
          </g>
          <g>
            <rect width="45.8" x="233.1" y="361.2" height="20.8" fill="#FFFFFF"/>
          </g>
          <g>
            <rect width="45.8" x="139.3" y="422.7" height="20.8" fill="#FFFFFF"/>
          </g>
          <g>
            <rect width="45.8" x="233.1" y="422.7" height="20.8" fill="#FFFFFF"/>
          </g>
          <g>
            <rect width="20.8" x="340.4" y="357.1" height="86.5" fill="#FFFFFF"/>
          </g>
        </g>
      </g>
    </g>
  </g>
</svg>
