<?xml version="1.0" encoding="iso-8859-1"?>
<!-- Generator: Adobe Illustrator 19.0.0, SVG Export Plug-In . SVG Version: 6.00 Build 0)  -->
<svg version="1.1" id="Capa_1" xmlns="http://www.w3.org/2000/svg" xmlns:xlink="http://www.w3.org/1999/xlink" x="0px" y="0px"
	 viewBox="0 0 512 512" style="enable-background:new 0 0 512 512;" xml:space="preserve">
<g>
	<g>
		<path d="M117.344,0c-5.888,0-10.667,4.779-10.667,10.667v490.667c0,5.888,4.779,10.667,10.667,10.667s10.667-4.779,10.667-10.667
			V10.667C128.011,4.779,123.232,0,117.344,0z"/>
	</g>
</g>
<g>
	<g>
		<path d="M231.563,109.803L124.896,3.136c-4.16-4.16-10.923-4.16-15.083,0L3.147,109.803c-4.16,4.16-4.16,10.923,0,15.083
			c4.16,4.16,10.923,4.16,15.083,0l99.115-99.136l99.115,99.136c2.091,2.069,4.821,3.115,7.552,3.115s5.461-1.045,7.552-3.115
			C235.723,120.725,235.723,113.963,231.563,109.803z"/>
	</g>
</g>
<g>
	<g>
		<path d="M394.677,0c-5.888,0-10.667,4.779-10.667,10.667v490.667c0,5.888,4.779,10.667,10.667,10.667s10.667-4.779,10.667-10.667
			V10.667C405.344,4.779,400.565,0,394.677,0z"/>
	</g>
</g>
<g>
	<g>
		<path d="M508.853,387.136c-4.16-4.16-10.923-4.16-15.083,0l-99.115,99.115l-99.115-99.115c-4.16-4.16-10.923-4.16-15.083,0
			s-4.16,10.923,0,15.083l106.667,106.667c2.091,2.069,4.821,3.115,7.552,3.115s5.461-1.045,7.509-3.115l106.667-106.667
			C513.013,398.059,513.013,391.296,508.853,387.136z"/>
	</g>
</g>
</svg>
